<svg width="25" height="25" viewBox="0 0 25 25" fill="none" xmlns="http://www.w3.org/2000/svg">
<path id="Star 8" d="M6.74204 1.49934C6.60901 0.558276 7.75792 -0.00321754 8.41868 0.679926L13.3122 5.7392C13.6077 6.04471 14.0663 6.1252 14.4482 5.93857L20.772 2.84797C21.6259 2.43065 22.515 3.34981 22.0694 4.18934L18.77 10.4067C18.5707 10.7822 18.6359 11.2432 18.9314 11.5487L23.8249 16.608C24.4857 17.2912 23.8862 18.4207 22.9501 18.2564L16.0174 17.0397C15.5988 16.9663 15.1804 17.1707 14.9812 17.5462L11.6817 23.7636C11.2362 24.6031 9.97665 24.382 9.84363 23.441L8.85846 16.4716C8.79897 16.0508 8.47525 15.7161 8.05661 15.6426L1.12391 14.4259C0.187803 14.2616 0.00882271 12.9954 0.862717 12.5781L7.18655 9.48749C7.56842 9.30086 7.78669 8.88956 7.7272 8.46871L6.74204 1.49934Z" fill="#CE5D5D"/>
</svg>
