<svg width="31" height="31" viewBox="0 0 31 31" fill="none" xmlns="http://www.w3.org/2000/svg">
<path id="Star 6" d="M18.904 0.699836C19.493 -0.0460572 20.6924 0.397532 20.6543 1.34718L20.2725 10.8653C20.2555 11.29 20.5138 11.6774 20.9125 11.8248L29.8468 15.1292C30.7382 15.4589 30.6869 16.7367 29.772 16.9939L20.6017 19.572C20.1925 19.6871 19.904 20.0525 19.8869 20.4772L19.5051 29.9953C19.467 30.945 18.236 31.2911 17.7086 30.5004L12.4229 22.5757C12.187 22.2221 11.7503 22.0605 11.3411 22.1756L2.17086 24.7537C1.25591 25.011 0.546334 23.9471 1.13534 23.2012L7.03885 15.7253C7.30227 15.3917 7.32093 14.9265 7.08508 14.5729L1.79934 6.64812C1.27197 5.85744 2.06447 4.85385 2.95587 5.18353L11.8902 8.48792C12.2888 8.63536 12.7371 8.50933 13.0005 8.17576L18.904 0.699836Z" fill="#9F4DB7"/>
</svg>
